<mxfile host="app.diagrams.net" modified="2021-03-22T07:21:26.227Z" agent="5.0 (Windows NT 10.0; Win64; x64) AppleWebKit/537.36 (KHTML, like Gecko) Chrome/89.0.4389.90 Safari/537.36" etag="2DzPKQ5w5hntme_5VLv7" version="14.4.9" type="gitlab">
  <diagram id="R2lEEEUBdFMjLlhIrx00" name="Page-1">
    <mxGraphModel dx="782" dy="469" grid="1" gridSize="10" guides="1" tooltips="1" connect="1" arrows="1" fold="1" page="1" pageScale="1" pageWidth="827" pageHeight="1169" math="0" shadow="0" extFonts="Permanent Marker^https://fonts.googleapis.com/css?family=Permanent+Marker">
      <root>
        <mxCell id="0" />
        <mxCell id="1" parent="0" />
        <mxCell id="qQBjTNLBhVrsHFlp6GPE-38" style="edgeStyle=orthogonalEdgeStyle;curved=1;orthogonalLoop=1;jettySize=auto;html=1;exitX=1;exitY=0.5;exitDx=0;exitDy=0;endArrow=none;endFill=0;" edge="1" parent="1" source="qQBjTNLBhVrsHFlp6GPE-14" target="qQBjTNLBhVrsHFlp6GPE-29">
          <mxGeometry relative="1" as="geometry" />
        </mxCell>
        <mxCell id="qQBjTNLBhVrsHFlp6GPE-14" value="revision" style="rhombus;whiteSpace=wrap;html=1;" vertex="1" parent="1">
          <mxGeometry x="320" y="150" width="80" height="80" as="geometry" />
        </mxCell>
        <mxCell id="qQBjTNLBhVrsHFlp6GPE-24" style="edgeStyle=orthogonalEdgeStyle;curved=1;orthogonalLoop=1;jettySize=auto;html=1;exitX=0.75;exitY=0;exitDx=0;exitDy=0;entryX=0;entryY=1;entryDx=0;entryDy=0;endArrow=none;endFill=0;" edge="1" parent="1" source="qQBjTNLBhVrsHFlp6GPE-19" target="qQBjTNLBhVrsHFlp6GPE-21">
          <mxGeometry relative="1" as="geometry" />
        </mxCell>
        <mxCell id="qQBjTNLBhVrsHFlp6GPE-26" style="edgeStyle=orthogonalEdgeStyle;curved=1;orthogonalLoop=1;jettySize=auto;html=1;exitX=1;exitY=0.5;exitDx=0;exitDy=0;entryX=-0.079;entryY=0.5;entryDx=0;entryDy=0;entryPerimeter=0;endArrow=none;endFill=0;" edge="1" parent="1" source="qQBjTNLBhVrsHFlp6GPE-19" target="qQBjTNLBhVrsHFlp6GPE-14">
          <mxGeometry relative="1" as="geometry" />
        </mxCell>
        <mxCell id="qQBjTNLBhVrsHFlp6GPE-19" value="Page" style="rounded=0;whiteSpace=wrap;html=1;" vertex="1" parent="1">
          <mxGeometry x="80" y="165" width="100" height="50" as="geometry" />
        </mxCell>
        <mxCell id="qQBjTNLBhVrsHFlp6GPE-25" style="edgeStyle=orthogonalEdgeStyle;curved=1;orthogonalLoop=1;jettySize=auto;html=1;exitX=0.5;exitY=1;exitDx=0;exitDy=0;entryX=0.25;entryY=0;entryDx=0;entryDy=0;endArrow=none;endFill=0;" edge="1" parent="1" source="qQBjTNLBhVrsHFlp6GPE-20" target="qQBjTNLBhVrsHFlp6GPE-19">
          <mxGeometry relative="1" as="geometry" />
        </mxCell>
        <mxCell id="qQBjTNLBhVrsHFlp6GPE-20" value="Id" style="ellipse;whiteSpace=wrap;html=1;" vertex="1" parent="1">
          <mxGeometry x="50" y="90" width="60" height="40" as="geometry" />
        </mxCell>
        <mxCell id="qQBjTNLBhVrsHFlp6GPE-21" value="slug" style="ellipse;whiteSpace=wrap;html=1;" vertex="1" parent="1">
          <mxGeometry x="150" y="80" width="60" height="40" as="geometry" />
        </mxCell>
        <mxCell id="qQBjTNLBhVrsHFlp6GPE-27" style="edgeStyle=orthogonalEdgeStyle;curved=1;orthogonalLoop=1;jettySize=auto;html=1;exitX=0;exitY=0.5;exitDx=0;exitDy=0;entryX=1;entryY=0.25;entryDx=0;entryDy=0;endArrow=none;endFill=0;" edge="1" parent="1" source="qQBjTNLBhVrsHFlp6GPE-22" target="qQBjTNLBhVrsHFlp6GPE-19">
          <mxGeometry relative="1" as="geometry" />
        </mxCell>
        <mxCell id="qQBjTNLBhVrsHFlp6GPE-22" value="content" style="ellipse;whiteSpace=wrap;html=1;" vertex="1" parent="1">
          <mxGeometry x="220" y="130" width="60" height="40" as="geometry" />
        </mxCell>
        <mxCell id="qQBjTNLBhVrsHFlp6GPE-65" style="edgeStyle=orthogonalEdgeStyle;curved=1;orthogonalLoop=1;jettySize=auto;html=1;exitX=0.5;exitY=1;exitDx=0;exitDy=0;entryX=0.5;entryY=0;entryDx=0;entryDy=0;endArrow=none;endFill=0;" edge="1" parent="1" source="qQBjTNLBhVrsHFlp6GPE-29" target="qQBjTNLBhVrsHFlp6GPE-64">
          <mxGeometry relative="1" as="geometry" />
        </mxCell>
        <mxCell id="qQBjTNLBhVrsHFlp6GPE-29" value="User" style="rounded=0;whiteSpace=wrap;html=1;" vertex="1" parent="1">
          <mxGeometry x="490" y="165" width="100" height="50" as="geometry" />
        </mxCell>
        <mxCell id="qQBjTNLBhVrsHFlp6GPE-31" style="edgeStyle=orthogonalEdgeStyle;curved=1;orthogonalLoop=1;jettySize=auto;html=1;entryX=0.25;entryY=0;entryDx=0;entryDy=0;endArrow=none;endFill=0;" edge="1" parent="1" source="qQBjTNLBhVrsHFlp6GPE-30" target="qQBjTNLBhVrsHFlp6GPE-29">
          <mxGeometry relative="1" as="geometry" />
        </mxCell>
        <mxCell id="qQBjTNLBhVrsHFlp6GPE-30" value="Id" style="ellipse;whiteSpace=wrap;html=1;" vertex="1" parent="1">
          <mxGeometry x="450" y="90" width="60" height="40" as="geometry" />
        </mxCell>
        <mxCell id="qQBjTNLBhVrsHFlp6GPE-33" style="edgeStyle=orthogonalEdgeStyle;curved=1;orthogonalLoop=1;jettySize=auto;html=1;exitX=0.5;exitY=1;exitDx=0;exitDy=0;entryX=0.5;entryY=0;entryDx=0;entryDy=0;endArrow=none;endFill=0;" edge="1" parent="1" source="qQBjTNLBhVrsHFlp6GPE-32" target="qQBjTNLBhVrsHFlp6GPE-29">
          <mxGeometry relative="1" as="geometry" />
        </mxCell>
        <mxCell id="qQBjTNLBhVrsHFlp6GPE-32" value="name" style="ellipse;whiteSpace=wrap;html=1;" vertex="1" parent="1">
          <mxGeometry x="540" y="90" width="60" height="40" as="geometry" />
        </mxCell>
        <mxCell id="qQBjTNLBhVrsHFlp6GPE-36" style="edgeStyle=orthogonalEdgeStyle;curved=1;orthogonalLoop=1;jettySize=auto;html=1;exitX=0;exitY=0.5;exitDx=0;exitDy=0;entryX=1;entryY=0.25;entryDx=0;entryDy=0;endArrow=none;endFill=0;" edge="1" parent="1" source="qQBjTNLBhVrsHFlp6GPE-34" target="qQBjTNLBhVrsHFlp6GPE-29">
          <mxGeometry relative="1" as="geometry" />
        </mxCell>
        <mxCell id="qQBjTNLBhVrsHFlp6GPE-34" value="email" style="ellipse;whiteSpace=wrap;html=1;" vertex="1" parent="1">
          <mxGeometry x="630" y="130" width="60" height="40" as="geometry" />
        </mxCell>
        <mxCell id="qQBjTNLBhVrsHFlp6GPE-37" style="edgeStyle=orthogonalEdgeStyle;curved=1;orthogonalLoop=1;jettySize=auto;html=1;exitX=0;exitY=0.5;exitDx=0;exitDy=0;entryX=1;entryY=0.75;entryDx=0;entryDy=0;endArrow=none;endFill=0;" edge="1" parent="1" source="qQBjTNLBhVrsHFlp6GPE-35" target="qQBjTNLBhVrsHFlp6GPE-29">
          <mxGeometry relative="1" as="geometry" />
        </mxCell>
        <mxCell id="qQBjTNLBhVrsHFlp6GPE-35" value="password" style="ellipse;whiteSpace=wrap;html=1;" vertex="1" parent="1">
          <mxGeometry x="630" y="190" width="60" height="40" as="geometry" />
        </mxCell>
        <mxCell id="qQBjTNLBhVrsHFlp6GPE-41" value="images" style="rounded=0;whiteSpace=wrap;html=1;" vertex="1" parent="1">
          <mxGeometry x="80" y="380" width="110" height="50" as="geometry" />
        </mxCell>
        <mxCell id="qQBjTNLBhVrsHFlp6GPE-44" style="edgeStyle=orthogonalEdgeStyle;curved=1;orthogonalLoop=1;jettySize=auto;html=1;exitX=0.5;exitY=1;exitDx=0;exitDy=0;entryX=0.5;entryY=0;entryDx=0;entryDy=0;endArrow=none;endFill=0;" edge="1" parent="1" source="qQBjTNLBhVrsHFlp6GPE-42" target="qQBjTNLBhVrsHFlp6GPE-14">
          <mxGeometry relative="1" as="geometry" />
        </mxCell>
        <mxCell id="qQBjTNLBhVrsHFlp6GPE-42" value="datetime" style="ellipse;whiteSpace=wrap;html=1;" vertex="1" parent="1">
          <mxGeometry x="330" y="90" width="60" height="40" as="geometry" />
        </mxCell>
        <mxCell id="qQBjTNLBhVrsHFlp6GPE-46" style="edgeStyle=orthogonalEdgeStyle;curved=1;orthogonalLoop=1;jettySize=auto;html=1;entryX=0;entryY=1;entryDx=0;entryDy=0;endArrow=none;endFill=0;" edge="1" parent="1" source="qQBjTNLBhVrsHFlp6GPE-45" target="qQBjTNLBhVrsHFlp6GPE-14">
          <mxGeometry relative="1" as="geometry" />
        </mxCell>
        <mxCell id="qQBjTNLBhVrsHFlp6GPE-45" value="rev_content" style="ellipse;whiteSpace=wrap;html=1;" vertex="1" parent="1">
          <mxGeometry x="300" y="250" width="80" height="40" as="geometry" />
        </mxCell>
        <mxCell id="qQBjTNLBhVrsHFlp6GPE-48" style="edgeStyle=orthogonalEdgeStyle;curved=1;orthogonalLoop=1;jettySize=auto;html=1;exitX=0.5;exitY=1;exitDx=0;exitDy=0;entryX=0.158;entryY=-0.04;entryDx=0;entryDy=0;entryPerimeter=0;endArrow=none;endFill=0;" edge="1" parent="1" source="qQBjTNLBhVrsHFlp6GPE-47" target="qQBjTNLBhVrsHFlp6GPE-41">
          <mxGeometry relative="1" as="geometry" />
        </mxCell>
        <mxCell id="qQBjTNLBhVrsHFlp6GPE-47" value="id" style="ellipse;whiteSpace=wrap;html=1;" vertex="1" parent="1">
          <mxGeometry x="60" y="310" width="60" height="40" as="geometry" />
        </mxCell>
        <mxCell id="qQBjTNLBhVrsHFlp6GPE-50" style="edgeStyle=orthogonalEdgeStyle;curved=1;orthogonalLoop=1;jettySize=auto;html=1;exitX=0.5;exitY=1;exitDx=0;exitDy=0;entryX=0.5;entryY=0;entryDx=0;entryDy=0;endArrow=none;endFill=0;" edge="1" parent="1" source="qQBjTNLBhVrsHFlp6GPE-49" target="qQBjTNLBhVrsHFlp6GPE-41">
          <mxGeometry relative="1" as="geometry" />
        </mxCell>
        <mxCell id="qQBjTNLBhVrsHFlp6GPE-49" value="filename" style="ellipse;whiteSpace=wrap;html=1;" vertex="1" parent="1">
          <mxGeometry x="140" y="310" width="60" height="40" as="geometry" />
        </mxCell>
        <mxCell id="qQBjTNLBhVrsHFlp6GPE-52" style="edgeStyle=orthogonalEdgeStyle;curved=1;orthogonalLoop=1;jettySize=auto;html=1;exitX=0;exitY=0.5;exitDx=0;exitDy=0;entryX=1;entryY=0.25;entryDx=0;entryDy=0;endArrow=none;endFill=0;" edge="1" parent="1" source="qQBjTNLBhVrsHFlp6GPE-51" target="qQBjTNLBhVrsHFlp6GPE-41">
          <mxGeometry relative="1" as="geometry" />
        </mxCell>
        <mxCell id="qQBjTNLBhVrsHFlp6GPE-51" value="path" style="ellipse;whiteSpace=wrap;html=1;" vertex="1" parent="1">
          <mxGeometry x="230" y="330" width="60" height="40" as="geometry" />
        </mxCell>
        <mxCell id="qQBjTNLBhVrsHFlp6GPE-53" value="&lt;b&gt;N&lt;/b&gt;" style="text;html=1;strokeColor=none;fillColor=none;align=center;verticalAlign=middle;whiteSpace=wrap;rounded=0;" vertex="1" parent="1">
          <mxGeometry x="450" y="170" width="40" height="20" as="geometry" />
        </mxCell>
        <mxCell id="qQBjTNLBhVrsHFlp6GPE-54" value="&lt;b&gt;M&lt;br&gt;&lt;/b&gt;" style="text;html=1;strokeColor=none;fillColor=none;align=center;verticalAlign=middle;whiteSpace=wrap;rounded=0;" vertex="1" parent="1">
          <mxGeometry x="200" y="170" width="40" height="20" as="geometry" />
        </mxCell>
        <mxCell id="qQBjTNLBhVrsHFlp6GPE-57" value="Role" style="rounded=0;whiteSpace=wrap;html=1;" vertex="1" parent="1">
          <mxGeometry x="490" y="340" width="100" height="50" as="geometry" />
        </mxCell>
        <mxCell id="qQBjTNLBhVrsHFlp6GPE-59" style="edgeStyle=orthogonalEdgeStyle;curved=1;orthogonalLoop=1;jettySize=auto;html=1;entryX=0;entryY=0.25;entryDx=0;entryDy=0;endArrow=none;endFill=0;" edge="1" parent="1" source="qQBjTNLBhVrsHFlp6GPE-58" target="qQBjTNLBhVrsHFlp6GPE-57">
          <mxGeometry relative="1" as="geometry" />
        </mxCell>
        <mxCell id="qQBjTNLBhVrsHFlp6GPE-58" value="Id" style="ellipse;whiteSpace=wrap;html=1;" vertex="1" parent="1">
          <mxGeometry x="430" y="290" width="60" height="40" as="geometry" />
        </mxCell>
        <mxCell id="qQBjTNLBhVrsHFlp6GPE-63" style="edgeStyle=orthogonalEdgeStyle;curved=1;orthogonalLoop=1;jettySize=auto;html=1;exitX=0.5;exitY=1;exitDx=0;exitDy=0;entryX=1;entryY=0.5;entryDx=0;entryDy=0;endArrow=none;endFill=0;" edge="1" parent="1" source="qQBjTNLBhVrsHFlp6GPE-61" target="qQBjTNLBhVrsHFlp6GPE-57">
          <mxGeometry relative="1" as="geometry" />
        </mxCell>
        <mxCell id="qQBjTNLBhVrsHFlp6GPE-61" value="name" style="ellipse;whiteSpace=wrap;html=1;" vertex="1" parent="1">
          <mxGeometry x="600" y="300" width="60" height="40" as="geometry" />
        </mxCell>
        <mxCell id="qQBjTNLBhVrsHFlp6GPE-66" style="edgeStyle=orthogonalEdgeStyle;curved=1;orthogonalLoop=1;jettySize=auto;html=1;exitX=0.5;exitY=1;exitDx=0;exitDy=0;entryX=0.5;entryY=0;entryDx=0;entryDy=0;endArrow=none;endFill=0;" edge="1" parent="1" source="qQBjTNLBhVrsHFlp6GPE-64" target="qQBjTNLBhVrsHFlp6GPE-57">
          <mxGeometry relative="1" as="geometry" />
        </mxCell>
        <mxCell id="qQBjTNLBhVrsHFlp6GPE-64" value="has" style="rhombus;whiteSpace=wrap;html=1;" vertex="1" parent="1">
          <mxGeometry x="500" y="240" width="80" height="80" as="geometry" />
        </mxCell>
        <mxCell id="qQBjTNLBhVrsHFlp6GPE-67" value="&lt;b&gt;1&lt;/b&gt;" style="text;html=1;strokeColor=none;fillColor=none;align=center;verticalAlign=middle;whiteSpace=wrap;rounded=0;" vertex="1" parent="1">
          <mxGeometry x="530" y="320" width="40" height="20" as="geometry" />
        </mxCell>
        <mxCell id="qQBjTNLBhVrsHFlp6GPE-68" value="&lt;b&gt;N&lt;/b&gt;" style="text;html=1;strokeColor=none;fillColor=none;align=center;verticalAlign=middle;whiteSpace=wrap;rounded=0;" vertex="1" parent="1">
          <mxGeometry x="530" y="215" width="40" height="20" as="geometry" />
        </mxCell>
      </root>
    </mxGraphModel>
  </diagram>
</mxfile>
